<svg width="180" height="180" viewBox="0 0 180 180" fill="none" xmlns="http://www.w3.org/2000/svg">
  <!-- Background with subtle rounded corners for iOS -->
  <rect width="180" height="180" rx="20" fill="url(#background)"/>
  
  <!-- Sun rays -->
  <g>
    <rect x="88" y="18" width="4" height="20" rx="2" fill="#FB923C" opacity="0.9"/>
    <rect x="88" y="142" width="4" height="20" rx="2" fill="#FB923C" opacity="0.9"/>
    <rect x="18" y="88" width="20" height="4" rx="2" fill="#FB923C" opacity="0.9"/>
    <rect x="142" y="88" width="20" height="4" rx="2" fill="#FB923C" opacity="0.9"/>
    <rect x="35.5" y="35.5" width="4" height="20" rx="2" fill="#FB923C" opacity="0.8" transform="rotate(45 37.5 45.5)"/>
    <rect x="124.5" y="124.5" width="4" height="20" rx="2" fill="#FB923C" opacity="0.8" transform="rotate(45 126.5 134.5)"/>
    <rect x="35.5" y="124.5" width="4" height="20" rx="2" fill="#FB923C" opacity="0.8" transform="rotate(-45 37.5 134.5)"/>
    <rect x="124.5" y="35.5" width="4" height="20" rx="2" fill="#FB923C" opacity="0.8" transform="rotate(-45 126.5 45.5)"/>
  </g>
  
  <!-- Outer sun circle -->
  <circle cx="90" cy="90" r="42" fill="url(#gradient1)"/>
  
  <!-- Inner sun circle -->
  <circle cx="90" cy="90" r="26" fill="url(#gradient2)"/>
  
  <!-- Core center -->
  <circle cx="90" cy="90" r="16" fill="url(#gradient3)"/>
  
  <!-- Gradients -->
  <defs>
    <linearGradient id="background" x1="0%" y1="0%" x2="100%" y2="100%">
      <stop offset="0%" style="stop-color:#FEF3C7;stop-opacity:1" />
      <stop offset="100%" style="stop-color:#FED7AA;stop-opacity:1" />
    </linearGradient>
    <linearGradient id="gradient1" x1="0%" y1="0%" x2="0%" y2="100%">
      <stop offset="0%" style="stop-color:#FB923C;stop-opacity:1" />
      <stop offset="30%" style="stop-color:#FDBA74;stop-opacity:1" />
      <stop offset="70%" style="stop-color:#FED7AA;stop-opacity:1" />
      <stop offset="100%" style="stop-color:#FEF3C7;stop-opacity:1" />
    </linearGradient>
    <linearGradient id="gradient2" x1="0%" y1="0%" x2="0%" y2="100%">
      <stop offset="0%" style="stop-color:#FEF3C7;stop-opacity:1" />
      <stop offset="50%" style="stop-color:#FDE68A;stop-opacity:1" />
      <stop offset="100%" style="stop-color:#FBBF24;stop-opacity:1" />
    </linearGradient>
    <linearGradient id="gradient3" x1="0%" y1="0%" x2="0%" y2="100%">
      <stop offset="0%" style="stop-color:#FBBF24;stop-opacity:1" />
      <stop offset="100%" style="stop-color:#F59E0B;stop-opacity:1" />
    </linearGradient>
  </defs>
</svg> 