<svg width="16" height="16" viewBox="0 0 16 16" fill="none" xmlns="http://www.w3.org/2000/svg">
  <!-- Simplified sun rays for small size -->
  <g opacity="0.8">
    <rect x="7.5" y="1" width="1" height="2" rx="0.5" fill="#FB923C"/>
    <rect x="7.5" y="13" width="1" height="2" rx="0.5" fill="#FB923C"/>
    <rect x="1" y="7.5" width="2" height="1" rx="0.5" fill="#FB923C"/>
    <rect x="13" y="7.5" width="2" height="1" rx="0.5" fill="#FB923C"/>
    <rect x="2.5" y="2.5" width="1" height="2" rx="0.5" fill="#FB923C" opacity="0.6" transform="rotate(45 3 3.5)"/>
    <rect x="11.5" y="11.5" width="1" height="2" rx="0.5" fill="#FB923C" opacity="0.6" transform="rotate(45 12 12.5)"/>
    <rect x="2.5" y="11.5" width="1" height="2" rx="0.5" fill="#FB923C" opacity="0.6" transform="rotate(-45 3 12.5)"/>
    <rect x="11.5" y="2.5" width="1" height="2" rx="0.5" fill="#FB923C" opacity="0.6" transform="rotate(-45 12 3.5)"/>
  </g>
  
  <!-- Main sun circle -->
  <circle cx="8" cy="8" r="4" fill="url(#grad1)"/>
  <circle cx="8" cy="8" r="2.5" fill="url(#grad2)"/>
  
  <defs>
    <linearGradient id="grad1" x1="0%" y1="0%" x2="0%" y2="100%">
      <stop offset="0%" style="stop-color:#FB923C"/>
      <stop offset="100%" style="stop-color:#FEF3C7"/>
    </linearGradient>
    <linearGradient id="grad2" x1="0%" y1="0%" x2="0%" y2="100%">
      <stop offset="0%" style="stop-color:#FEF3C7"/>
      <stop offset="100%" style="stop-color:#FDE68A"/>
    </linearGradient>
  </defs>
</svg> 