<svg width="192" height="192" viewBox="0 0 192 192" fill="none" xmlns="http://www.w3.org/2000/svg">
  <!-- Sun rays -->
  <g>
    <rect x="94" y="12" width="4" height="24" rx="2" fill="#FB923C" opacity="0.9"/>
    <rect x="94" y="156" width="4" height="24" rx="2" fill="#FB923C" opacity="0.9"/>
    <rect x="12" y="94" width="24" height="4" rx="2" fill="#FB923C" opacity="0.9"/>
    <rect x="156" y="94" width="24" height="4" rx="2" fill="#FB923C" opacity="0.9"/>
    <rect x="34.56" y="34.56" width="4" height="24" rx="2" fill="#FB923C" opacity="0.8" transform="rotate(45 36.56 46.56)"/>
    <rect x="133.44" y="133.44" width="4" height="24" rx="2" fill="#FB923C" opacity="0.8" transform="rotate(45 135.44 145.44)"/>
    <rect x="34.56" y="133.44" width="4" height="24" rx="2" fill="#FB923C" opacity="0.8" transform="rotate(-45 36.56 145.44)"/>
    <rect x="133.44" y="34.56" width="4" height="24" rx="2" fill="#FB923C" opacity="0.8" transform="rotate(-45 135.44 46.56)"/>
  </g>
  
  <!-- Outer sun circle -->
  <circle cx="96" cy="96" r="48" fill="url(#gradient1)"/>
  
  <!-- Inner sun circle -->
  <circle cx="96" cy="96" r="30" fill="url(#gradient2)"/>
  
  <!-- Core center -->
  <circle cx="96" cy="96" r="18" fill="url(#gradient3)"/>
  
  <!-- Gradients -->
  <defs>
    <linearGradient id="gradient1" x1="0%" y1="0%" x2="0%" y2="100%">
      <stop offset="0%" style="stop-color:#FB923C;stop-opacity:1" />
      <stop offset="30%" style="stop-color:#FDBA74;stop-opacity:1" />
      <stop offset="70%" style="stop-color:#FED7AA;stop-opacity:1" />
      <stop offset="100%" style="stop-color:#FEF3C7;stop-opacity:1" />
    </linearGradient>
    <linearGradient id="gradient2" x1="0%" y1="0%" x2="0%" y2="100%">
      <stop offset="0%" style="stop-color:#FEF3C7;stop-opacity:1" />
      <stop offset="50%" style="stop-color:#FDE68A;stop-opacity:1" />
      <stop offset="100%" style="stop-color:#FBBF24;stop-opacity:1" />
    </linearGradient>
    <linearGradient id="gradient3" x1="0%" y1="0%" x2="0%" y2="100%">
      <stop offset="0%" style="stop-color:#FBBF24;stop-opacity:1" />
      <stop offset="100%" style="stop-color:#F59E0B;stop-opacity:1" />
    </linearGradient>
  </defs>
</svg> 