<svg width="120" height="40" viewBox="0 0 120 40" fill="none" xmlns="http://www.w3.org/2000/svg">
  <!-- Sun rays -->
  <g transform="translate(8, 4)">
    <rect x="15" y="2" width="2" height="4" rx="1" fill="#FB923C" opacity="0.9"/>
    <rect x="15" y="26" width="2" height="4" rx="1" fill="#FB923C" opacity="0.9"/>
    <rect x="2" y="15" width="4" height="2" rx="1" fill="#FB923C" opacity="0.9"/>
    <rect x="26" y="15" width="4" height="2" rx="1" fill="#FB923C" opacity="0.9"/>
    <rect x="5.76" y="5.76" width="2" height="4" rx="1" fill="#FB923C" opacity="0.7" transform="rotate(45 6.76 7.76)"/>
    <rect x="22.24" y="22.24" width="2" height="4" rx="1" fill="#FB923C" opacity="0.7" transform="rotate(45 23.24 24.24)"/>
    <rect x="5.76" y="22.24" width="2" height="4" rx="1" fill="#FB923C" opacity="0.7" transform="rotate(-45 6.76 24.24)"/>
    <rect x="22.24" y="5.76" width="2" height="4" rx="1" fill="#FB923C" opacity="0.7" transform="rotate(-45 23.24 7.76)"/>
  
    <!-- Outer sun circle -->
    <circle cx="16" cy="16" r="8" fill="url(#gradient1)"/>
    
    <!-- Inner sun circle -->
    <circle cx="16" cy="16" r="5" fill="url(#gradient2)"/>
  </g>
  
  <!-- Brand text -->
  <text x="55" y="16" font-family="Inter, Arial, sans-serif" font-size="12" font-weight="600" fill="#1f2937">YOUR DAILY</text>
  <text x="55" y="28" font-family="Inter, Arial, sans-serif" font-size="12" font-weight="600" fill="#667eea">DOSE</text>
  
  <!-- Gradients -->
  <defs>
    <linearGradient id="gradient1" x1="0%" y1="0%" x2="0%" y2="100%">
      <stop offset="0%" style="stop-color:#FB923C;stop-opacity:1" />
      <stop offset="50%" style="stop-color:#FDBA74;stop-opacity:1" />
      <stop offset="100%" style="stop-color:#FEF3C7;stop-opacity:1" />
    </linearGradient>
    <linearGradient id="gradient2" x1="0%" y1="0%" x2="0%" y2="100%">
      <stop offset="0%" style="stop-color:#FEF3C7;stop-opacity:1" />
      <stop offset="100%" style="stop-color:#FDE68A;stop-opacity:1" />
    </linearGradient>
  </defs>
</svg> 